<?xml version="1.0" encoding="utf-8"?>
<svg xmlns="http://www.w3.org/2000/svg" xmlns:xlink="http://www.w3.org/1999/xlink" width="600" height="400" viewBox="0 0 600 400">
<defs>
  <clipPath id="clip00">
    <rect x="0" y="0" width="600" height="400"/>
  </clipPath>
</defs>
<polygon clip-path="url(#clip00)" points="
0,400 600,400 600,0 0,0 
  " fill="#ffffff" fill-opacity="1"/>
<defs>
  <clipPath id="clip01">
    <rect x="120" y="0" width="421" height="400"/>
  </clipPath>
</defs>
<polygon clip-path="url(#clip00)" points="
39.3701,368.504 592.126,368.504 592.126,7.87402 39.3701,7.87402 
  " fill="#ffffff" fill-opacity="1"/>
<defs>
  <clipPath id="clip02">
    <rect x="39" y="7" width="554" height="362"/>
  </clipPath>
</defs>
<polyline clip-path="url(#clip02)" style="stroke:#000000; stroke-width:1; stroke-opacity:0.5; fill:none" stroke-dasharray="1, 2" points="
  144.394,363.094 144.394,13.2835 
  "/>
<polyline clip-path="url(#clip02)" style="stroke:#000000; stroke-width:1; stroke-opacity:0.5; fill:none" stroke-dasharray="1, 2" points="
  254.945,363.094 254.945,13.2835 
  "/>
<polyline clip-path="url(#clip02)" style="stroke:#000000; stroke-width:1; stroke-opacity:0.5; fill:none" stroke-dasharray="1, 2" points="
  365.496,363.094 365.496,13.2835 
  "/>
<polyline clip-path="url(#clip02)" style="stroke:#000000; stroke-width:1; stroke-opacity:0.5; fill:none" stroke-dasharray="1, 2" points="
  476.047,363.094 476.047,13.2835 
  "/>
<polyline clip-path="url(#clip02)" style="stroke:#000000; stroke-width:1; stroke-opacity:0.5; fill:none" stroke-dasharray="1, 2" points="
  586.598,363.094 586.598,13.2835 
  "/>
<polyline clip-path="url(#clip02)" style="stroke:#000000; stroke-width:1; stroke-opacity:0.5; fill:none" stroke-dasharray="1, 2" points="
  47.6614,368.504 583.835,368.504 
  "/>
<polyline clip-path="url(#clip02)" style="stroke:#000000; stroke-width:1; stroke-opacity:0.5; fill:none" stroke-dasharray="1, 2" points="
  47.6614,296.378 583.835,296.378 
  "/>
<polyline clip-path="url(#clip02)" style="stroke:#000000; stroke-width:1; stroke-opacity:0.5; fill:none" stroke-dasharray="1, 2" points="
  47.6614,224.252 583.835,224.252 
  "/>
<polyline clip-path="url(#clip02)" style="stroke:#000000; stroke-width:1; stroke-opacity:0.5; fill:none" stroke-dasharray="1, 2" points="
  47.6614,152.126 583.835,152.126 
  "/>
<polyline clip-path="url(#clip02)" style="stroke:#000000; stroke-width:1; stroke-opacity:0.5; fill:none" stroke-dasharray="1, 2" points="
  47.6614,80 583.835,80 
  "/>
<polyline clip-path="url(#clip02)" style="stroke:#000000; stroke-width:1; stroke-opacity:0.5; fill:none" stroke-dasharray="1, 2" points="
  47.6614,7.87402 583.835,7.87402 
  "/>
<polyline clip-path="url(#clip00)" style="stroke:#000000; stroke-width:1; stroke-opacity:1; fill:none" points="
  39.3701,368.504 592.126,368.504 
  "/>
<polyline clip-path="url(#clip00)" style="stroke:#000000; stroke-width:1; stroke-opacity:1; fill:none" points="
  144.394,368.504 144.394,363.094 
  "/>
<polyline clip-path="url(#clip00)" style="stroke:#000000; stroke-width:1; stroke-opacity:1; fill:none" points="
  254.945,368.504 254.945,363.094 
  "/>
<polyline clip-path="url(#clip00)" style="stroke:#000000; stroke-width:1; stroke-opacity:1; fill:none" points="
  365.496,368.504 365.496,363.094 
  "/>
<polyline clip-path="url(#clip00)" style="stroke:#000000; stroke-width:1; stroke-opacity:1; fill:none" points="
  476.047,368.504 476.047,363.094 
  "/>
<polyline clip-path="url(#clip00)" style="stroke:#000000; stroke-width:1; stroke-opacity:1; fill:none" points="
  586.598,368.504 586.598,363.094 
  "/>
<polyline clip-path="url(#clip00)" style="stroke:#000000; stroke-width:1; stroke-opacity:1; fill:none" points="
  39.3701,368.504 39.3701,7.87402 
  "/>
<polyline clip-path="url(#clip00)" style="stroke:#000000; stroke-width:1; stroke-opacity:1; fill:none" points="
  39.3701,368.504 47.6614,368.504 
  "/>
<polyline clip-path="url(#clip00)" style="stroke:#000000; stroke-width:1; stroke-opacity:1; fill:none" points="
  39.3701,296.378 47.6614,296.378 
  "/>
<polyline clip-path="url(#clip00)" style="stroke:#000000; stroke-width:1; stroke-opacity:1; fill:none" points="
  39.3701,224.252 47.6614,224.252 
  "/>
<polyline clip-path="url(#clip00)" style="stroke:#000000; stroke-width:1; stroke-opacity:1; fill:none" points="
  39.3701,152.126 47.6614,152.126 
  "/>
<polyline clip-path="url(#clip00)" style="stroke:#000000; stroke-width:1; stroke-opacity:1; fill:none" points="
  39.3701,80 47.6614,80 
  "/>
<polyline clip-path="url(#clip00)" style="stroke:#000000; stroke-width:1; stroke-opacity:1; fill:none" points="
  39.3701,7.87402 47.6614,7.87402 
  "/>
<g clip-path="url(#clip00)">
<text style="fill:#000000; fill-opacity:1; font-family:Arial,Helvetica Neue,Helvetica,sans-serif; font-size:12; text-anchor:middle;" transform="rotate(0, 144.394, 382.304)" x="144.394" y="382.304">20</text>
</g>
<g clip-path="url(#clip00)">
<text style="fill:#000000; fill-opacity:1; font-family:Arial,Helvetica Neue,Helvetica,sans-serif; font-size:12; text-anchor:middle;" transform="rotate(0, 254.945, 382.304)" x="254.945" y="382.304">40</text>
</g>
<g clip-path="url(#clip00)">
<text style="fill:#000000; fill-opacity:1; font-family:Arial,Helvetica Neue,Helvetica,sans-serif; font-size:12; text-anchor:middle;" transform="rotate(0, 365.496, 382.304)" x="365.496" y="382.304">60</text>
</g>
<g clip-path="url(#clip00)">
<text style="fill:#000000; fill-opacity:1; font-family:Arial,Helvetica Neue,Helvetica,sans-serif; font-size:12; text-anchor:middle;" transform="rotate(0, 476.047, 382.304)" x="476.047" y="382.304">80</text>
</g>
<g clip-path="url(#clip00)">
<text style="fill:#000000; fill-opacity:1; font-family:Arial,Helvetica Neue,Helvetica,sans-serif; font-size:12; text-anchor:middle;" transform="rotate(0, 586.598, 382.304)" x="586.598" y="382.304">100</text>
</g>
<g clip-path="url(#clip00)">
<text style="fill:#000000; fill-opacity:1; font-family:Arial,Helvetica Neue,Helvetica,sans-serif; font-size:12; text-anchor:end;" transform="rotate(0, 33.3701, 373.004)" x="33.3701" y="373.004">0.0</text>
</g>
<g clip-path="url(#clip00)">
<text style="fill:#000000; fill-opacity:1; font-family:Arial,Helvetica Neue,Helvetica,sans-serif; font-size:12; text-anchor:end;" transform="rotate(0, 33.3701, 300.878)" x="33.3701" y="300.878">0.2</text>
</g>
<g clip-path="url(#clip00)">
<text style="fill:#000000; fill-opacity:1; font-family:Arial,Helvetica Neue,Helvetica,sans-serif; font-size:12; text-anchor:end;" transform="rotate(0, 33.3701, 228.752)" x="33.3701" y="228.752">0.4</text>
</g>
<g clip-path="url(#clip00)">
<text style="fill:#000000; fill-opacity:1; font-family:Arial,Helvetica Neue,Helvetica,sans-serif; font-size:12; text-anchor:end;" transform="rotate(0, 33.3701, 156.626)" x="33.3701" y="156.626">0.6</text>
</g>
<g clip-path="url(#clip00)">
<text style="fill:#000000; fill-opacity:1; font-family:Arial,Helvetica Neue,Helvetica,sans-serif; font-size:12; text-anchor:end;" transform="rotate(0, 33.3701, 84.5)" x="33.3701" y="84.5">0.8</text>
</g>
<g clip-path="url(#clip00)">
<text style="fill:#000000; fill-opacity:1; font-family:Arial,Helvetica Neue,Helvetica,sans-serif; font-size:12; text-anchor:end;" transform="rotate(0, 33.3701, 12.374)" x="33.3701" y="12.374">1.0</text>
</g>
<g clip-path="url(#clip00)">
<text style="fill:#000000; fill-opacity:1; font-family:Arial,Helvetica Neue,Helvetica,sans-serif; font-size:16; text-anchor:middle;" transform="rotate(0, 315.748, 397.6)" x="315.748" y="397.6">training iteration</text>
</g>
<g clip-path="url(#clip00)">
<text style="fill:#000000; fill-opacity:1; font-family:Arial,Helvetica Neue,Helvetica,sans-serif; font-size:16; text-anchor:middle;" transform="rotate(-90, 14.4, 188.189)" x="14.4" y="188.189">loss</text>
</g>
<polyline clip-path="url(#clip02)" style="stroke:#009af9; stroke-width:1; stroke-opacity:1; fill:none" points="
  39.3701,37.5754 44.8976,10.0623 50.4252,-0.154188 55.9528,-18.5611 61.4803,-0.625833 67.0079,-53.2187 72.5354,34.3004 78.063,69.2183 83.5906,81.3143 89.1181,-8.31077 
  94.6457,54.49 100.173,19.2401 105.701,-87.2662 111.228,84.9303 116.756,9.29433 122.283,73.305 127.811,86.0141 133.339,68.5245 138.866,-46.3377 144.394,-32.1519 
  149.921,-51.4599 155.449,29.6445 160.976,48.1356 166.504,93.2258 172.031,21.9812 177.559,13.1435 183.087,78.1344 188.614,25.8865 194.142,75.4362 199.669,20.5255 
  205.197,-6.64145 210.724,52.9693 216.252,59.2622 221.78,30.483 227.307,-17.7734 232.835,24.0827 238.362,13.1467 243.89,36.6009 249.417,11.9884 254.945,43.2565 
  260.472,-64.3439 266,67.9826 271.528,76.0407 277.055,-36.0773 282.583,-35.3674 288.11,-14.1266 293.638,-20 299.165,-29.6524 304.693,-25.2579 310.22,-71.8568 
  315.748,38.2757 321.276,-14.6979 326.803,38.2364 332.331,127.344 337.858,-9.35269 343.386,104.169 348.913,62.2107 354.441,31.1603 359.969,38.3634 365.496,11.2155 
  371.024,136.221 376.551,173.682 382.079,125.388 387.606,133.643 393.134,153.137 398.661,131.508 404.189,155.068 409.717,91.0113 415.244,184.97 420.772,96.4282 
  426.299,205.412 431.827,112.802 437.354,211.204 442.882,124.279 448.409,232.942 453.937,138.771 459.465,159 464.992,144.455 470.52,136.673 476.047,169.333 
  481.575,91.4956 487.102,152.058 492.63,39.942 498.157,167.46 503.685,119.342 509.213,189.008 514.74,139.621 520.268,185.631 525.795,221.597 531.323,186.789 
  536.85,224.378 542.378,216.256 547.906,234.913 553.433,227 558.961,240.337 564.488,224.771 570.016,210.082 575.543,196.596 581.071,154.403 586.598,184.954 
  592.126,173.722 
  "/>
<polyline clip-path="url(#clip02)" style="stroke:#e26f46; stroke-width:1; stroke-opacity:1; fill:none" points="
  39.3701,70.0401 44.8976,46.2893 50.4252,34.858 55.9528,18.6215 61.4803,32.4742 67.0079,-23.0664 72.5354,56.4713 78.063,84.0608 83.5906,88.083 89.1181,-20.9688 
  94.6457,36.309 100.173,-18.4006 105.701,-150.396 111.228,57.8525 116.756,-51.4135 122.283,28.538 127.811,46.8695 133.339,15.6428 138.866,-150.914 144.394,-147.14 
  149.921,-181.383 155.449,-61.4075 160.976,-26.5487 166.504,15.4931 172.031,-81.8064 177.559,-80.6003 183.087,17.7268 188.614,-74.5557 194.142,-12.676 199.669,-107.621 
  205.197,-155.347 210.724,-68.4471 216.252,-56.7475 221.78,-105.019 227.307,-139.084 232.835,-70.6117 238.362,-112.559 243.89,-65.1197 249.417,-84.7234 254.945,-60.4764 
  260.472,-199.131 266,-29.9618 271.528,-38.9006 277.055,-166.138 282.583,-143.767 288.11,-103.134 293.638,-78.8023 299.165,-82.2071 304.693,-57.2193 310.22,-111.362 
  315.748,30.2125 321.276,-46.9013 326.803,62.0273 332.331,105.579 337.858,-32.8356 343.386,56.2077 348.913,24.6095 354.441,-24.136 359.969,32.9095 365.496,0.753237 
  371.024,80.6365 376.551,163.219 382.079,74.1665 387.606,118.278 393.134,148.591 398.661,86.4307 404.189,165.212 409.717,43.9124 415.244,179.194 420.772,83.67 
  426.299,200.421 431.827,98.3268 437.354,207.335 442.882,114.766 448.409,211.208 453.937,113.284 459.465,162.383 464.992,123.241 470.52,112.257 476.047,173.542 
  481.575,81.3994 487.102,166.604 492.63,50.0308 498.157,175.839 503.685,111.284 509.213,175.601 514.74,158.097 520.268,147.579 525.795,226.058 531.323,156.501 
  536.85,231.042 542.378,183.826 547.906,226.202 553.433,209.164 558.961,234.269 564.488,199.577 570.016,214.329 575.543,183.353 581.071,139.969 586.598,162.033 
  592.126,186.907 
  "/>
<polygon clip-path="url(#clip00)" points="
450.896,74.114 574.126,74.114 574.126,28.754 450.896,28.754 
  " fill="#ffffff" fill-opacity="1"/>
<polyline clip-path="url(#clip00)" style="stroke:#000000; stroke-width:1; stroke-opacity:1; fill:none" points="
  450.896,74.114 574.126,74.114 574.126,28.754 450.896,28.754 450.896,74.114 
  "/>
<polyline clip-path="url(#clip00)" style="stroke:#009af9; stroke-width:1; stroke-opacity:1; fill:none" points="
  456.896,43.874 492.896,43.874 
  "/>
<g clip-path="url(#clip00)">
<text style="fill:#000000; fill-opacity:1; font-family:Arial,Helvetica Neue,Helvetica,sans-serif; font-size:12; text-anchor:start;" transform="rotate(0, 498.896, 48.374)" x="498.896" y="48.374">training loss</text>
</g>
<polyline clip-path="url(#clip00)" style="stroke:#e26f46; stroke-width:1; stroke-opacity:1; fill:none" points="
  456.896,58.994 492.896,58.994 
  "/>
<g clip-path="url(#clip00)">
<text style="fill:#000000; fill-opacity:1; font-family:Arial,Helvetica Neue,Helvetica,sans-serif; font-size:12; text-anchor:start;" transform="rotate(0, 498.896, 63.494)" x="498.896" y="63.494">test loss</text>
</g>
</svg>
