<?xml version="1.0" encoding="utf-8"?>
<svg xmlns="http://www.w3.org/2000/svg" xmlns:xlink="http://www.w3.org/1999/xlink" width="600" height="400" viewBox="0 0 600 400">
<defs>
  <clipPath id="clip00">
    <rect x="0" y="0" width="600" height="400"/>
  </clipPath>
</defs>
<polygon clip-path="url(#clip00)" points="
0,400 600,400 600,0 0,0 
  " fill="#ffffff" fill-opacity="1"/>
<defs>
  <clipPath id="clip01">
    <rect x="120" y="0" width="421" height="400"/>
  </clipPath>
</defs>
<polygon clip-path="url(#clip00)" points="
39.3701,368.504 592.126,368.504 592.126,7.87402 39.3701,7.87402 
  " fill="#ffffff" fill-opacity="1"/>
<defs>
  <clipPath id="clip02">
    <rect x="39" y="7" width="554" height="362"/>
  </clipPath>
</defs>
<polyline clip-path="url(#clip02)" style="stroke:#000000; stroke-width:1; stroke-opacity:0.5; fill:none" stroke-dasharray="1, 2" points="
  144.394,363.094 144.394,13.2835 
  "/>
<polyline clip-path="url(#clip02)" style="stroke:#000000; stroke-width:1; stroke-opacity:0.5; fill:none" stroke-dasharray="1, 2" points="
  254.945,363.094 254.945,13.2835 
  "/>
<polyline clip-path="url(#clip02)" style="stroke:#000000; stroke-width:1; stroke-opacity:0.5; fill:none" stroke-dasharray="1, 2" points="
  365.496,363.094 365.496,13.2835 
  "/>
<polyline clip-path="url(#clip02)" style="stroke:#000000; stroke-width:1; stroke-opacity:0.5; fill:none" stroke-dasharray="1, 2" points="
  476.047,363.094 476.047,13.2835 
  "/>
<polyline clip-path="url(#clip02)" style="stroke:#000000; stroke-width:1; stroke-opacity:0.5; fill:none" stroke-dasharray="1, 2" points="
  586.598,363.094 586.598,13.2835 
  "/>
<polyline clip-path="url(#clip02)" style="stroke:#000000; stroke-width:1; stroke-opacity:0.5; fill:none" stroke-dasharray="1, 2" points="
  47.6614,368.504 583.835,368.504 
  "/>
<polyline clip-path="url(#clip02)" style="stroke:#000000; stroke-width:1; stroke-opacity:0.5; fill:none" stroke-dasharray="1, 2" points="
  47.6614,296.378 583.835,296.378 
  "/>
<polyline clip-path="url(#clip02)" style="stroke:#000000; stroke-width:1; stroke-opacity:0.5; fill:none" stroke-dasharray="1, 2" points="
  47.6614,224.252 583.835,224.252 
  "/>
<polyline clip-path="url(#clip02)" style="stroke:#000000; stroke-width:1; stroke-opacity:0.5; fill:none" stroke-dasharray="1, 2" points="
  47.6614,152.126 583.835,152.126 
  "/>
<polyline clip-path="url(#clip02)" style="stroke:#000000; stroke-width:1; stroke-opacity:0.5; fill:none" stroke-dasharray="1, 2" points="
  47.6614,80 583.835,80 
  "/>
<polyline clip-path="url(#clip02)" style="stroke:#000000; stroke-width:1; stroke-opacity:0.5; fill:none" stroke-dasharray="1, 2" points="
  47.6614,7.87402 583.835,7.87402 
  "/>
<polyline clip-path="url(#clip00)" style="stroke:#000000; stroke-width:1; stroke-opacity:1; fill:none" points="
  39.3701,368.504 592.126,368.504 
  "/>
<polyline clip-path="url(#clip00)" style="stroke:#000000; stroke-width:1; stroke-opacity:1; fill:none" points="
  144.394,368.504 144.394,363.094 
  "/>
<polyline clip-path="url(#clip00)" style="stroke:#000000; stroke-width:1; stroke-opacity:1; fill:none" points="
  254.945,368.504 254.945,363.094 
  "/>
<polyline clip-path="url(#clip00)" style="stroke:#000000; stroke-width:1; stroke-opacity:1; fill:none" points="
  365.496,368.504 365.496,363.094 
  "/>
<polyline clip-path="url(#clip00)" style="stroke:#000000; stroke-width:1; stroke-opacity:1; fill:none" points="
  476.047,368.504 476.047,363.094 
  "/>
<polyline clip-path="url(#clip00)" style="stroke:#000000; stroke-width:1; stroke-opacity:1; fill:none" points="
  586.598,368.504 586.598,363.094 
  "/>
<polyline clip-path="url(#clip00)" style="stroke:#000000; stroke-width:1; stroke-opacity:1; fill:none" points="
  39.3701,368.504 39.3701,7.87402 
  "/>
<polyline clip-path="url(#clip00)" style="stroke:#000000; stroke-width:1; stroke-opacity:1; fill:none" points="
  39.3701,368.504 47.6614,368.504 
  "/>
<polyline clip-path="url(#clip00)" style="stroke:#000000; stroke-width:1; stroke-opacity:1; fill:none" points="
  39.3701,296.378 47.6614,296.378 
  "/>
<polyline clip-path="url(#clip00)" style="stroke:#000000; stroke-width:1; stroke-opacity:1; fill:none" points="
  39.3701,224.252 47.6614,224.252 
  "/>
<polyline clip-path="url(#clip00)" style="stroke:#000000; stroke-width:1; stroke-opacity:1; fill:none" points="
  39.3701,152.126 47.6614,152.126 
  "/>
<polyline clip-path="url(#clip00)" style="stroke:#000000; stroke-width:1; stroke-opacity:1; fill:none" points="
  39.3701,80 47.6614,80 
  "/>
<polyline clip-path="url(#clip00)" style="stroke:#000000; stroke-width:1; stroke-opacity:1; fill:none" points="
  39.3701,7.87402 47.6614,7.87402 
  "/>
<g clip-path="url(#clip00)">
<text style="fill:#000000; fill-opacity:1; font-family:Arial,Helvetica Neue,Helvetica,sans-serif; font-size:12; text-anchor:middle;" transform="rotate(0, 144.394, 382.304)" x="144.394" y="382.304">20</text>
</g>
<g clip-path="url(#clip00)">
<text style="fill:#000000; fill-opacity:1; font-family:Arial,Helvetica Neue,Helvetica,sans-serif; font-size:12; text-anchor:middle;" transform="rotate(0, 254.945, 382.304)" x="254.945" y="382.304">40</text>
</g>
<g clip-path="url(#clip00)">
<text style="fill:#000000; fill-opacity:1; font-family:Arial,Helvetica Neue,Helvetica,sans-serif; font-size:12; text-anchor:middle;" transform="rotate(0, 365.496, 382.304)" x="365.496" y="382.304">60</text>
</g>
<g clip-path="url(#clip00)">
<text style="fill:#000000; fill-opacity:1; font-family:Arial,Helvetica Neue,Helvetica,sans-serif; font-size:12; text-anchor:middle;" transform="rotate(0, 476.047, 382.304)" x="476.047" y="382.304">80</text>
</g>
<g clip-path="url(#clip00)">
<text style="fill:#000000; fill-opacity:1; font-family:Arial,Helvetica Neue,Helvetica,sans-serif; font-size:12; text-anchor:middle;" transform="rotate(0, 586.598, 382.304)" x="586.598" y="382.304">100</text>
</g>
<g clip-path="url(#clip00)">
<text style="fill:#000000; fill-opacity:1; font-family:Arial,Helvetica Neue,Helvetica,sans-serif; font-size:12; text-anchor:end;" transform="rotate(0, 33.3701, 373.004)" x="33.3701" y="373.004">0.0</text>
</g>
<g clip-path="url(#clip00)">
<text style="fill:#000000; fill-opacity:1; font-family:Arial,Helvetica Neue,Helvetica,sans-serif; font-size:12; text-anchor:end;" transform="rotate(0, 33.3701, 300.878)" x="33.3701" y="300.878">0.2</text>
</g>
<g clip-path="url(#clip00)">
<text style="fill:#000000; fill-opacity:1; font-family:Arial,Helvetica Neue,Helvetica,sans-serif; font-size:12; text-anchor:end;" transform="rotate(0, 33.3701, 228.752)" x="33.3701" y="228.752">0.4</text>
</g>
<g clip-path="url(#clip00)">
<text style="fill:#000000; fill-opacity:1; font-family:Arial,Helvetica Neue,Helvetica,sans-serif; font-size:12; text-anchor:end;" transform="rotate(0, 33.3701, 156.626)" x="33.3701" y="156.626">0.6</text>
</g>
<g clip-path="url(#clip00)">
<text style="fill:#000000; fill-opacity:1; font-family:Arial,Helvetica Neue,Helvetica,sans-serif; font-size:12; text-anchor:end;" transform="rotate(0, 33.3701, 84.5)" x="33.3701" y="84.5">0.8</text>
</g>
<g clip-path="url(#clip00)">
<text style="fill:#000000; fill-opacity:1; font-family:Arial,Helvetica Neue,Helvetica,sans-serif; font-size:12; text-anchor:end;" transform="rotate(0, 33.3701, 12.374)" x="33.3701" y="12.374">1.0</text>
</g>
<g clip-path="url(#clip00)">
<text style="fill:#000000; fill-opacity:1; font-family:Arial,Helvetica Neue,Helvetica,sans-serif; font-size:16; text-anchor:middle;" transform="rotate(0, 315.748, 397.6)" x="315.748" y="397.6">training iteration</text>
</g>
<g clip-path="url(#clip00)">
<text style="fill:#000000; fill-opacity:1; font-family:Arial,Helvetica Neue,Helvetica,sans-serif; font-size:16; text-anchor:middle;" transform="rotate(-90, 14.4, 188.189)" x="14.4" y="188.189">loss</text>
</g>
<polyline clip-path="url(#clip02)" style="stroke:#009af9; stroke-width:1; stroke-opacity:1; fill:none" points="
  39.3701,37.5754 44.8976,224.132 50.4252,232.463 55.9528,242.652 61.4803,203.533 67.0079,247.675 72.5354,263.063 78.063,265.718 83.5906,267.961 89.1181,269.326 
  94.6457,249.588 100.173,265.612 105.701,292.204 111.228,295.647 116.756,302.794 122.283,301.996 127.811,303.369 133.339,259.5 138.866,297.081 144.394,301.231 
  149.921,309.358 155.449,274.441 160.976,311.35 166.504,310.427 172.031,318.943 177.559,317.69 183.087,319.166 188.614,315.495 194.142,317.885 199.669,308.123 
  205.197,322.673 210.724,322.92 216.252,320.157 221.78,317.531 227.307,320.839 232.835,315.267 238.362,311.737 243.89,321.572 249.417,324.193 254.945,314.518 
  260.472,322.986 266,315.697 271.528,321.166 277.055,326.298 282.583,327.393 288.11,327.775 293.638,318.214 299.165,328.254 304.693,331.193 310.22,328.508 
  315.748,326.647 321.276,327.828 326.803,323.384 332.331,329.452 337.858,330.279 343.386,330.747 348.913,316.282 354.441,331.646 359.969,327.402 365.496,335.143 
  371.024,334.613 376.551,336.767 382.079,328.916 387.606,330.489 393.134,328.136 398.661,328.241 404.189,338.149 409.717,338.987 415.244,333.209 420.772,341.456 
  426.299,335.304 431.827,339.31 437.354,342.232 442.882,340.389 448.409,342.461 453.937,342.244 459.465,336.336 464.992,346.405 470.52,338.643 476.047,347.231 
  481.575,347.108 487.102,341.96 492.63,346.534 498.157,349.031 503.685,351.343 509.213,351.7 514.74,352.212 520.268,348.628 525.795,352.527 531.323,353.567 
  536.85,351.079 542.378,353.471 547.906,348.853 553.433,349.712 558.961,352.423 564.488,347.251 570.016,347.54 575.543,353.858 581.071,347.159 586.598,352.996 
  592.126,353.886 
  "/>
<polyline clip-path="url(#clip02)" style="stroke:#e26f46; stroke-width:1; stroke-opacity:1; fill:none" points="
  39.3701,70.0401 44.8976,189.103 50.4252,164.65 55.9528,197.041 61.4803,112.345 67.0079,196.977 72.5354,187.209 78.063,196.611 83.5906,195.607 89.1181,169.555 
  94.6457,186.729 100.173,191.222 105.701,183.317 111.228,179.468 116.756,170.573 122.283,176.563 127.811,172.504 133.339,165.339 138.866,158.148 144.394,179.029 
  149.921,171.952 155.449,117.075 160.976,158.885 166.504,129.072 172.031,171.09 177.559,143.642 183.087,147.868 188.614,164.546 194.142,163.017 199.669,140.389 
  205.197,179.435 210.724,170.878 216.252,187.195 221.78,166.449 227.307,181.636 232.835,194.967 238.362,205.101 243.89,187.689 249.417,160.772 254.945,154.718 
  260.472,195.645 266,182.352 271.528,204.847 277.055,201.57 282.583,175.381 288.11,170.312 293.638,169.809 299.165,164.018 304.693,188.796 310.22,193.616 
  315.748,188.9 321.276,174.116 326.803,166.063 332.331,175.338 337.858,203.044 343.386,172.436 348.913,159.771 354.441,177.05 359.969,146.391 365.496,190.346 
  371.024,213.182 376.551,192.96 382.079,152.461 387.606,154.145 393.134,153.156 398.661,172.198 404.189,215.167 409.717,210.153 415.244,203.19 420.772,231.423 
  426.299,244.538 431.827,230.326 437.354,249.086 442.882,206.567 448.409,213.255 453.937,235.483 459.465,264.039 464.992,220.873 470.52,219.538 476.047,237.548 
  481.575,223.955 487.102,218.391 492.63,249.49 498.157,232.442 503.685,249.637 509.213,269.075 514.74,251.832 520.268,284.851 525.795,250.104 531.323,271.716 
  536.85,267.37 542.378,256.6 547.906,228.796 553.433,252.183 558.961,245.589 564.488,261.945 570.016,289.128 575.543,252.674 581.071,266.162 586.598,267.767 
  592.126,264.351 
  "/>
<polygon clip-path="url(#clip00)" points="
450.896,74.114 574.126,74.114 574.126,28.754 450.896,28.754 
  " fill="#ffffff" fill-opacity="1"/>
<polyline clip-path="url(#clip00)" style="stroke:#000000; stroke-width:1; stroke-opacity:1; fill:none" points="
  450.896,74.114 574.126,74.114 574.126,28.754 450.896,28.754 450.896,74.114 
  "/>
<polyline clip-path="url(#clip00)" style="stroke:#009af9; stroke-width:1; stroke-opacity:1; fill:none" points="
  456.896,43.874 492.896,43.874 
  "/>
<g clip-path="url(#clip00)">
<text style="fill:#000000; fill-opacity:1; font-family:Arial,Helvetica Neue,Helvetica,sans-serif; font-size:12; text-anchor:start;" transform="rotate(0, 498.896, 48.374)" x="498.896" y="48.374">training loss</text>
</g>
<polyline clip-path="url(#clip00)" style="stroke:#e26f46; stroke-width:1; stroke-opacity:1; fill:none" points="
  456.896,58.994 492.896,58.994 
  "/>
<g clip-path="url(#clip00)">
<text style="fill:#000000; fill-opacity:1; font-family:Arial,Helvetica Neue,Helvetica,sans-serif; font-size:12; text-anchor:start;" transform="rotate(0, 498.896, 63.494)" x="498.896" y="63.494">test loss</text>
</g>
</svg>
