<?xml version="1.0" encoding="utf-8"?>
<svg xmlns="http://www.w3.org/2000/svg" xmlns:xlink="http://www.w3.org/1999/xlink" width="600" height="400" viewBox="0 0 600 400">
<defs>
  <clipPath id="clip00">
    <rect x="0" y="0" width="600" height="400"/>
  </clipPath>
</defs>
<polygon clip-path="url(#clip00)" points="
0,400 600,400 600,0 0,0 
  " fill="#ffffff" fill-opacity="1"/>
<defs>
  <clipPath id="clip01">
    <rect x="120" y="0" width="421" height="400"/>
  </clipPath>
</defs>
<polygon clip-path="url(#clip00)" points="
39.3701,368.504 592.126,368.504 592.126,7.87402 39.3701,7.87402 
  " fill="#ffffff" fill-opacity="1"/>
<defs>
  <clipPath id="clip02">
    <rect x="39" y="7" width="554" height="362"/>
  </clipPath>
</defs>
<polyline clip-path="url(#clip02)" style="stroke:#000000; stroke-width:1; stroke-opacity:0.5; fill:none" stroke-dasharray="1, 2" points="
  149.76,363.094 149.76,13.2835 
  "/>
<polyline clip-path="url(#clip02)" style="stroke:#000000; stroke-width:1; stroke-opacity:0.5; fill:none" stroke-dasharray="1, 2" points="
  315.748,363.094 315.748,13.2835 
  "/>
<polyline clip-path="url(#clip02)" style="stroke:#000000; stroke-width:1; stroke-opacity:0.5; fill:none" stroke-dasharray="1, 2" points="
  481.736,363.094 481.736,13.2835 
  "/>
<polyline clip-path="url(#clip02)" style="stroke:#000000; stroke-width:1; stroke-opacity:0.5; fill:none" stroke-dasharray="1, 2" points="
  47.6614,368.504 583.835,368.504 
  "/>
<polyline clip-path="url(#clip02)" style="stroke:#000000; stroke-width:1; stroke-opacity:0.5; fill:none" stroke-dasharray="1, 2" points="
  47.6614,278.346 583.835,278.346 
  "/>
<polyline clip-path="url(#clip02)" style="stroke:#000000; stroke-width:1; stroke-opacity:0.5; fill:none" stroke-dasharray="1, 2" points="
  47.6614,188.189 583.835,188.189 
  "/>
<polyline clip-path="url(#clip02)" style="stroke:#000000; stroke-width:1; stroke-opacity:0.5; fill:none" stroke-dasharray="1, 2" points="
  47.6614,98.0315 583.835,98.0315 
  "/>
<polyline clip-path="url(#clip02)" style="stroke:#000000; stroke-width:1; stroke-opacity:0.5; fill:none" stroke-dasharray="1, 2" points="
  47.6614,7.87402 583.835,7.87402 
  "/>
<polyline clip-path="url(#clip00)" style="stroke:#000000; stroke-width:1; stroke-opacity:1; fill:none" points="
  39.3701,368.504 592.126,368.504 
  "/>
<polyline clip-path="url(#clip00)" style="stroke:#000000; stroke-width:1; stroke-opacity:1; fill:none" points="
  149.76,368.504 149.76,363.094 
  "/>
<polyline clip-path="url(#clip00)" style="stroke:#000000; stroke-width:1; stroke-opacity:1; fill:none" points="
  315.748,368.504 315.748,363.094 
  "/>
<polyline clip-path="url(#clip00)" style="stroke:#000000; stroke-width:1; stroke-opacity:1; fill:none" points="
  481.736,368.504 481.736,363.094 
  "/>
<polyline clip-path="url(#clip00)" style="stroke:#000000; stroke-width:1; stroke-opacity:1; fill:none" points="
  39.3701,368.504 39.3701,7.87402 
  "/>
<polyline clip-path="url(#clip00)" style="stroke:#000000; stroke-width:1; stroke-opacity:1; fill:none" points="
  39.3701,368.504 47.6614,368.504 
  "/>
<polyline clip-path="url(#clip00)" style="stroke:#000000; stroke-width:1; stroke-opacity:1; fill:none" points="
  39.3701,278.346 47.6614,278.346 
  "/>
<polyline clip-path="url(#clip00)" style="stroke:#000000; stroke-width:1; stroke-opacity:1; fill:none" points="
  39.3701,188.189 47.6614,188.189 
  "/>
<polyline clip-path="url(#clip00)" style="stroke:#000000; stroke-width:1; stroke-opacity:1; fill:none" points="
  39.3701,98.0315 47.6614,98.0315 
  "/>
<polyline clip-path="url(#clip00)" style="stroke:#000000; stroke-width:1; stroke-opacity:1; fill:none" points="
  39.3701,7.87402 47.6614,7.87402 
  "/>
<g clip-path="url(#clip00)">
<text style="fill:#000000; fill-opacity:1; font-family:Arial,Helvetica Neue,Helvetica,sans-serif; font-size:12; text-anchor:middle;" transform="rotate(0, 149.76, 382.304)" x="149.76" y="382.304">-2</text>
</g>
<g clip-path="url(#clip00)">
<text style="fill:#000000; fill-opacity:1; font-family:Arial,Helvetica Neue,Helvetica,sans-serif; font-size:12; text-anchor:middle;" transform="rotate(0, 315.748, 382.304)" x="315.748" y="382.304">0</text>
</g>
<g clip-path="url(#clip00)">
<text style="fill:#000000; fill-opacity:1; font-family:Arial,Helvetica Neue,Helvetica,sans-serif; font-size:12; text-anchor:middle;" transform="rotate(0, 481.736, 382.304)" x="481.736" y="382.304">2</text>
</g>
<g clip-path="url(#clip00)">
<text style="fill:#000000; fill-opacity:1; font-family:Arial,Helvetica Neue,Helvetica,sans-serif; font-size:12; text-anchor:end;" transform="rotate(0, 33.3701, 373.004)" x="33.3701" y="373.004">-4</text>
</g>
<g clip-path="url(#clip00)">
<text style="fill:#000000; fill-opacity:1; font-family:Arial,Helvetica Neue,Helvetica,sans-serif; font-size:12; text-anchor:end;" transform="rotate(0, 33.3701, 282.846)" x="33.3701" y="282.846">-2</text>
</g>
<g clip-path="url(#clip00)">
<text style="fill:#000000; fill-opacity:1; font-family:Arial,Helvetica Neue,Helvetica,sans-serif; font-size:12; text-anchor:end;" transform="rotate(0, 33.3701, 192.689)" x="33.3701" y="192.689">0</text>
</g>
<g clip-path="url(#clip00)">
<text style="fill:#000000; fill-opacity:1; font-family:Arial,Helvetica Neue,Helvetica,sans-serif; font-size:12; text-anchor:end;" transform="rotate(0, 33.3701, 102.531)" x="33.3701" y="102.531">2</text>
</g>
<g clip-path="url(#clip00)">
<text style="fill:#000000; fill-opacity:1; font-family:Arial,Helvetica Neue,Helvetica,sans-serif; font-size:12; text-anchor:end;" transform="rotate(0, 33.3701, 12.374)" x="33.3701" y="12.374">4</text>
</g>
<g clip-path="url(#clip00)">
<text style="fill:#000000; fill-opacity:1; font-family:Arial,Helvetica Neue,Helvetica,sans-serif; font-size:16; text-anchor:middle;" transform="rotate(0, 315.748, 397.6)" x="315.748" y="397.6">x</text>
</g>
<g clip-path="url(#clip00)">
<text style="fill:#000000; fill-opacity:1; font-family:Arial,Helvetica Neue,Helvetica,sans-serif; font-size:16; text-anchor:middle;" transform="rotate(-90, 14.4, 188.189)" x="14.4" y="188.189">f(x)</text>
</g>
<polyline clip-path="url(#clip02)" style="stroke:#009af9; stroke-width:1; stroke-opacity:1; fill:none" points="
  55.0141,165.788 65.4435,162.142 75.8728,158.728 86.3022,155.646 96.7315,152.968 107.161,150.738 117.59,148.978 128.02,147.704 138.449,146.948 148.878,146.775 
  159.308,147.318 169.737,148.809 180.166,151.602 190.596,156.152 201.025,162.861 211.454,171.755 221.884,182.132 232.313,192.619 242.743,201.754 253.172,208.609 
  263.601,212.91 274.031,214.805 284.46,214.606 294.889,212.64 305.319,209.233 315.748,204.786 326.177,199.82 336.607,194.904 347.036,190.521 357.465,186.974 
  367.895,184.393 378.324,182.786 388.754,182.107 399.183,182.3 409.612,183.313 420.042,185.101 430.471,187.611 440.9,190.759 451.33,194.408 461.759,198.362 
  472.188,202.374 482.618,206.185 493.047,209.568 503.476,212.366 513.906,214.507 524.335,215.992 534.765,216.875 545.194,217.24 555.623,217.184 566.053,216.804 
  576.482,216.191 
  "/>
<polyline clip-path="url(#clip02)" style="stroke:#000000; stroke-width:1; stroke-opacity:0; fill:none" points="
  134.56,145.783 72.691,169.562 284.813,218.766 443.905,185.79 488.098,226.404 549.967,215.072 
  "/>
<circle clip-path="url(#clip02)" style="fill:#000000; stroke:none; fill-opacity:1" cx="134.56" cy="145.783" r="4"/>
<circle clip-path="url(#clip02)" style="fill:#e26f46; stroke:none; fill-opacity:1" cx="134.56" cy="145.783" r="3"/>
<circle clip-path="url(#clip02)" style="fill:#000000; stroke:none; fill-opacity:1" cx="72.691" cy="169.562" r="4"/>
<circle clip-path="url(#clip02)" style="fill:#e26f46; stroke:none; fill-opacity:1" cx="72.691" cy="169.562" r="3"/>
<circle clip-path="url(#clip02)" style="fill:#000000; stroke:none; fill-opacity:1" cx="284.813" cy="218.766" r="4"/>
<circle clip-path="url(#clip02)" style="fill:#e26f46; stroke:none; fill-opacity:1" cx="284.813" cy="218.766" r="3"/>
<circle clip-path="url(#clip02)" style="fill:#000000; stroke:none; fill-opacity:1" cx="443.905" cy="185.79" r="4"/>
<circle clip-path="url(#clip02)" style="fill:#e26f46; stroke:none; fill-opacity:1" cx="443.905" cy="185.79" r="3"/>
<circle clip-path="url(#clip02)" style="fill:#000000; stroke:none; fill-opacity:1" cx="488.098" cy="226.404" r="4"/>
<circle clip-path="url(#clip02)" style="fill:#e26f46; stroke:none; fill-opacity:1" cx="488.098" cy="226.404" r="3"/>
<circle clip-path="url(#clip02)" style="fill:#000000; stroke:none; fill-opacity:1" cx="549.967" cy="215.072" r="4"/>
<circle clip-path="url(#clip02)" style="fill:#e26f46; stroke:none; fill-opacity:1" cx="549.967" cy="215.072" r="3"/>
<polyline clip-path="url(#clip02)" style="stroke:#3da44d; stroke-width:1; stroke-opacity:1; fill:none" points="
  55.0141,188.189 60.2288,182.539 65.4435,176.978 70.6581,171.594 75.8728,166.472 81.0875,161.692 86.3022,157.33 91.5169,153.455 96.7315,150.128 101.946,147.401 
  107.161,145.317 112.376,143.909 117.59,143.199 122.805,143.199 128.02,143.909 133.234,145.317 138.449,147.401 143.664,150.128 148.878,153.455 154.093,157.33 
  159.308,161.692 164.522,166.472 169.737,171.594 174.952,176.978 180.166,182.539 185.381,188.189 190.596,193.839 195.81,199.4 201.025,204.784 206.24,209.906 
  211.454,214.686 216.669,219.047 221.884,222.923 227.098,226.25 232.313,228.977 237.528,231.061 242.743,232.469 247.957,233.179 253.172,233.179 258.387,232.469 
  263.601,231.061 268.816,228.977 274.031,226.25 279.245,222.923 284.46,219.047 289.675,214.686 294.889,209.906 300.104,204.784 305.319,199.4 310.533,193.839 
  315.748,188.189 320.963,182.539 326.177,176.978 331.392,171.594 336.607,166.472 341.821,161.692 347.036,157.33 352.251,153.455 357.465,150.128 362.68,147.401 
  367.895,145.317 373.109,143.909 378.324,143.199 383.539,143.199 388.754,143.909 393.968,145.317 399.183,147.401 404.398,150.128 409.612,153.455 414.827,157.33 
  420.042,161.692 425.256,166.472 430.471,171.594 435.686,176.978 440.9,182.539 446.115,188.189 451.33,193.839 456.544,199.4 461.759,204.784 466.974,209.906 
  472.188,214.686 477.403,219.047 482.618,222.923 487.832,226.25 493.047,228.977 498.262,231.061 503.476,232.469 508.691,233.179 513.906,233.179 519.12,232.469 
  524.335,231.061 529.55,228.977 534.765,226.25 539.979,222.923 545.194,219.047 550.409,214.686 555.623,209.906 560.838,204.784 566.053,199.4 571.267,193.839 
  576.482,188.189 
  "/>
<polygon clip-path="url(#clip00)" points="
448.905,89.234 574.126,89.234 574.126,28.754 448.905,28.754 
  " fill="#ffffff" fill-opacity="1"/>
<polyline clip-path="url(#clip00)" style="stroke:#000000; stroke-width:1; stroke-opacity:1; fill:none" points="
  448.905,89.234 574.126,89.234 574.126,28.754 448.905,28.754 448.905,89.234 
  "/>
<polyline clip-path="url(#clip00)" style="stroke:#009af9; stroke-width:1; stroke-opacity:1; fill:none" points="
  454.905,43.874 490.905,43.874 
  "/>
<g clip-path="url(#clip00)">
<text style="fill:#000000; fill-opacity:1; font-family:Arial,Helvetica Neue,Helvetica,sans-serif; font-size:12; text-anchor:start;" transform="rotate(0, 496.905, 48.374)" x="496.905" y="48.374">prediction</text>
</g>
<polyline clip-path="url(#clip00)" style="stroke:#000000; stroke-width:1; stroke-opacity:0; fill:none" points="
  454.905,58.994 490.905,58.994 
  "/>
<circle clip-path="url(#clip00)" style="fill:#000000; stroke:none; fill-opacity:1" cx="475.905" cy="58.994" r="6"/>
<circle clip-path="url(#clip00)" style="fill:#e26f46; stroke:none; fill-opacity:1" cx="475.905" cy="58.994" r="5"/>
<g clip-path="url(#clip00)">
<text style="fill:#000000; fill-opacity:1; font-family:Arial,Helvetica Neue,Helvetica,sans-serif; font-size:12; text-anchor:start;" transform="rotate(0, 496.905, 63.494)" x="496.905" y="63.494">training data</text>
</g>
<polyline clip-path="url(#clip00)" style="stroke:#3da44d; stroke-width:1; stroke-opacity:1; fill:none" points="
  454.905,74.114 490.905,74.114 
  "/>
<g clip-path="url(#clip00)">
<text style="fill:#000000; fill-opacity:1; font-family:Arial,Helvetica Neue,Helvetica,sans-serif; font-size:12; text-anchor:start;" transform="rotate(0, 496.905, 78.614)" x="496.905" y="78.614">ground truth</text>
</g>
</svg>
